<?xml version="1.0" encoding="UTF-8" standalone="no"?>
<!DOCTYPE svg PUBLIC "-//W3C//DTD SVG 1.1//EN" "http://www.w3.org/Graphics/SVG/1.1/DTD/svg11.dtd">
<svg xmlns="http://www.w3.org/2000/svg" version="1.1" viewBox="220 180 585 620">
<path fill="#057070" d="
  M 801.58 229.04
  A 0.67 0.66 0.0 0 1 802.25 229.70
  C 802.27 290.57 803.10 349.55 803.44 423.25
  Q 803.44 424.93 803.64 426.74
  Q 805.64 445.48 806.68 458.00
  Q 808.79 483.66 806.90 509.58
  Q 806.53 514.63 803.29 540.30
  C 802.70 544.91 802.68 548.77 802.66 553.50
  Q 802.35 654.41 803.10 768.25
  Q 803.19 781.96 803.02 792.45
  A 0.72 0.72 0.0 0 1 802.30 793.16
  L 223.07 793.16
  A 0.97 0.97 0.0 0 1 222.10 792.17
  Q 222.90 720.65 223.29 685.25
  Q 224.01 619.65 222.21 549.10
  Q 222.03 542.15 220.97 535.45
  Q 214.41 494.19 219.33 451.00
  C 220.81 438.03 222.83 427.55 222.99 415.17
  C 223.65 364.99 223.75 309.20 224.10 229.34
  A 0.55 0.55 0.0 0 1 224.65 228.79
  L 355.52 228.42
  A 3.24 3.17 28.4 0 0 357.16 227.95
  Q 426.03 186.00 507.02 184.62
  Q 581.75 183.34 648.60 217.67
  Q 659.94 223.49 667.68 228.02
  A 7.45 7.42 -29.7 0 0 671.44 229.04
  L 801.58 229.04
  Z
  M 595.36 379.16
  C 599.25 380.20 606.01 379.74 615.18 379.55
  Q 626.63 379.32 632.83 379.36
  Q 701.35 379.79 753.00 379.38
  Q 755.63 379.36 756.71 379.94
  A 0.90 0.87 88.2 0 1 757.07 380.29
  L 762.37 389.47
  A 2.02 2.01 -37.0 0 1 762.02 391.94
  Q 759.61 394.24 755.43 394.34
  Q 741.64 394.68 739.27 394.66
  Q 679.11 394.16 613.75 394.75
  Q 565.52 395.18 534.50 394.85
  A 1.66 1.66 0.0 0 1 532.86 393.24
  Q 532.84 392.69 533.40 391.89
  Q 535.62 388.65 543.00 380.57
  A 2.98 2.98 0.0 0 1 545.14 379.59
  L 560.83 379.20
  A 5.16 4.93 -51.0 0 0 561.92 379.06
  Q 563.57 378.72 567.05 376.80
  Q 612.49 351.88 661.38 325.56
  C 682.91 313.97 700.93 303.78 719.50 293.80
  A 1.31 1.30 -35.9 0 0 719.83 291.76
  Q 712.20 283.65 702.49 274.25
  Q 693.47 265.52 677.42 253.22
  Q 664.59 243.39 649.87 235.62
  C 628.36 224.26 606.77 215.00 583.32 209.16
  C 558.94 203.08 535.61 199.58 511.01 200.07
  Q 481.80 200.65 456.79 205.59
  C 427.87 211.30 399.07 221.57 373.61 236.82
  Q 363.57 242.84 360.55 244.80
  Q 329.23 265.13 304.91 292.86
  A 0.14 0.13 36.3 0 0 304.95 293.07
  Q 339.81 312.50 346.92 316.56
  C 371.21 330.43 396.44 343.84 422.55 358.67
  C 435.83 366.21 443.86 370.41 458.74 378.49
  Q 460.95 379.69 464.72 379.63
  Q 474.32 379.47 480.50 379.64
  A 4.23 4.22 70.1 0 1 483.57 381.09
  L 493.41 392.40
  A 1.18 1.17 -27.4 0 1 492.80 394.31
  C 490.79 394.79 488.55 395.03 486.38 394.99
  C 454.17 394.30 424.54 394.65 393.54 394.53
  C 349.13 394.36 312.00 395.15 270.18 395.09
  A 3.82 3.78 73.3 0 1 267.00 393.36
  L 260.46 383.31
  A 1.10 1.10 0.0 0 1 261.11 381.64
  Q 265.73 380.50 270.75 380.60
  Q 277.13 380.72 348.75 380.12
  Q 389.19 379.78 426.00 379.86
  Q 427.12 379.87 428.65 379.18
  A 0.28 0.28 0.0 0 0 428.66 378.68
  Q 413.58 371.03 398.79 362.20
  C 391.32 357.74 385.18 354.68 376.57 349.72
  Q 371.07 346.55 359.81 340.48
  Q 322.48 320.38 295.54 305.52
  A 0.95 0.94 -58.0 0 0 294.31 305.81
  Q 281.29 324.33 280.40 325.65
  C 274.98 333.67 267.60 344.84 262.61 354.29
  Q 249.94 378.24 242.65 407.41
  Q 236.06 433.79 233.72 458.75
  Q 227.31 527.00 252.20 591.43
  Q 254.88 598.36 260.62 610.53
  Q 266.86 623.76 269.95 629.15
  C 279.77 646.32 292.10 663.52 305.78 679.04
  Q 315.42 689.97 323.48 698.52
  Q 329.33 704.74 336.75 710.02
  A 0.76 0.76 0.0 0 0 337.84 709.79
  C 347.73 693.42 359.26 676.26 370.34 658.68
  Q 400.86 610.22 430.69 559.66
  C 437.05 548.89 442.92 539.75 449.13 529.95
  Q 451.99 525.42 452.54 522.61
  Q 453.31 518.67 453.26 514.50
  Q 453.13 504.77 453.33 451.50
  C 453.35 446.58 453.51 443.41 451.00 440.00
  Q 446.95 434.49 438.06 422.33
  A 0.84 0.84 0.0 0 1 438.73 420.99
  L 454.99 420.99
  A 3.22 3.21 73.6 0 1 457.69 422.46
  L 468.81 439.54
  A 1.49 1.49 0.0 0 1 469.05 440.35
  Q 468.71 497.55 468.72 504.00
  Q 468.74 515.63 469.12 522.82
  Q 469.39 527.97 469.37 532.31
  Q 469.15 580.03 469.48 596.75
  C 470.63 655.64 469.56 710.46 469.51 769.77
  A 0.43 0.43 0.0 0 0 469.88 770.20
  Q 484.49 772.53 499.75 773.19
  Q 502.16 773.29 504.10 773.10
  A 1.17 1.16 87.0 0 0 505.14 771.94
  Q 504.82 676.01 504.83 565.28
  C 504.83 560.76 508.81 554.63 511.50 550.60
  A 1.24 1.24 0.0 0 1 513.23 550.27
  Q 513.54 550.48 513.91 550.96
  C 515.87 553.49 520.59 560.03 520.58 564.02
  Q 520.28 640.19 520.17 772.40
  A 0.97 0.97 0.0 0 0 521.16 773.37
  Q 538.09 773.01 554.61 770.39
  A 0.90 0.89 -4.5 0 0 555.37 769.51
  Q 555.20 685.01 555.50 461.50
  Q 555.52 447.73 556.06 439.25
  Q 556.18 437.25 557.78 435.07
  Q 562.88 428.10 566.00 424.13
  C 567.36 422.40 569.09 421.46 571.13 421.36
  Q 574.65 421.18 586.09 420.97
  A 1.25 1.24 12.2 0 1 587.24 422.75
  Q 586.33 424.65 584.73 426.72
  Q 581.10 431.41 574.87 438.63
  Q 571.71 442.29 571.72 447.01
  Q 571.90 505.37 571.95 517.00
  C 571.97 522.36 574.64 526.91 577.62 532.19
  Q 584.07 543.64 594.35 560.42
  Q 645.14 643.31 686.79 709.90
  A 0.52 0.52 0.0 0 0 687.56 710.03
  Q 700.17 699.74 712.45 686.46
  Q 735.89 661.11 754.07 629.77
  C 779.93 585.17 792.77 533.32 792.36 481.87
  C 791.86 418.09 770.09 356.50 730.92 305.89
  A 0.65 0.64 57.5 0 0 730.11 305.71
  Q 699.36 321.61 661.38 342.66
  Q 635.90 356.78 595.32 378.86
  A 0.16 0.16 0.0 0 0 595.36 379.16
  Z
  M 237.58 371.53
  Q 263.85 310.59 311.52 264.45
  C 317.73 258.44 325.96 251.68 332.43 245.68
  Q 333.62 244.56 334.34 243.18
  A 0.35 0.35 0.0 0 0 334.06 242.67
  C 332.04 242.54 329.86 242.26 327.97 242.25
  Q 317.61 242.20 237.90 241.96
  A 0.70 0.69 -89.6 0 0 237.20 242.66
  Q 237.51 304.82 237.35 369.85
  Q 237.35 370.57 237.24 370.63
  Q 236.67 370.98 236.75 371.42
  A 0.44 0.43 52.4 0 0 237.58 371.53
  Z
  M 788.71 374.75
  L 788.71 244.22
  A 1.22 1.21 -83.8 0 0 787.76 243.03
  Q 785.84 242.61 784.60 242.60
  Q 753.81 242.29 703.25 242.77
  Q 696.68 242.83 689.86 242.46
  A 0.17 0.17 0.0 0 0 689.74 242.76
  C 701.44 253.36 712.43 262.41 721.07 271.42
  Q 755.61 307.44 777.82 352.40
  Q 781.37 359.61 787.72 373.57
  Q 787.88 373.92 788.38 374.84
  A 0.18 0.17 -59.6 0 0 788.71 374.75
  Z
  M 572.34 550.17
  Q 572.97 553.97 571.89 558.10
  A 4.69 4.09 56.4 0 0 571.76 559.09
  L 571.54 626.17
  A 6.75 6.65 29.0 0 0 572.63 629.86
  L 643.88 739.30
  A 0.61 0.61 0.0 0 0 644.69 739.50
  Q 660.87 730.44 675.30 719.57
  A 0.64 0.63 55.4 0 0 675.45 718.72
  C 663.22 699.91 651.85 680.14 639.47 660.73
  Q 633.20 650.90 622.13 632.29
  Q 618.98 627.00 604.60 603.97
  Q 593.79 586.67 582.51 568.03
  Q 577.13 559.15 572.61 550.08
  A 0.14 0.14 0.0 0 0 572.34 550.17
  Z
  M 453.77 550.37
  C 452.83 552.27 451.52 553.70 450.28 555.95
  Q 437.54 578.85 433.21 585.96
  C 423.61 601.73 404.45 633.39 390.27 655.47
  Q 364.94 694.91 355.31 709.81
  Q 352.75 713.79 349.32 718.33
  A 0.65 0.65 0.0 0 0 349.49 719.27
  L 380.19 739.25
  A 1.34 1.34 0.0 0 0 382.04 738.86
  Q 386.33 732.31 391.51 724.26
  Q 430.82 663.06 452.62 630.87
  C 453.73 629.23 454.33 627.40 454.34 625.50
  Q 454.42 612.08 454.43 557.75
  Q 454.43 554.38 454.07 550.42
  A 0.16 0.16 0.0 0 0 453.77 550.37
  Z
  M 438.77 778.02
  Q 437.34 777.48 435.74 776.88
  Q 434.11 776.27 432.65 775.85
  Q 379.05 760.52 335.46 727.59
  Q 310.01 708.36 289.58 683.70
  Q 269.26 659.18 253.77 631.23
  Q 241.37 608.83 235.26 593.50
  A 1.99 1.94 -56.5 0 1 235.12 592.77
  L 235.14 591.71
  A 0.12 0.07 15.5 0 0 235.06 591.63
  Q 235.04 591.62 235.01 591.62
  A 0.12 0.11 87.8 0 0 234.89 591.76
  Q 236.05 599.61 236.43 610.25
  C 236.88 623.12 237.31 638.43 237.20 653.58
  Q 236.41 756.24 236.20 779.31
  A 0.83 0.83 0.0 0 0 237.02 780.15
  Q 246.90 780.30 255.25 780.26
  Q 296.63 780.03 425.75 779.80
  Q 433.39 779.79 437.53 778.25
  Q 437.89 778.12 438.72 778.22
  A 0.10 0.10 0.0 0 0 438.77 778.02
  Z
  M 590.71 778.28
  C 592.46 780.09 599.88 779.67 601.75 779.67
  Q 721.62 779.84 786.27 779.73
  Q 787.13 779.73 788.58 779.63
  A 0.98 0.98 0.0 0 0 789.50 778.65
  C 789.40 730.18 789.02 662.53 789.31 610.31
  Q 789.33 605.72 789.07 602.70
  Q 788.67 598.08 788.73 595.11
  A 0.11 0.11 0.0 0 0 788.52 595.07
  C 787.62 597.47 786.21 598.79 785.20 600.99
  Q 777.70 617.45 775.09 622.57
  Q 739.47 692.34 676.57 736.33
  Q 641.19 761.07 597.26 775.06
  C 595.02 775.77 593.48 776.51 590.83 777.69
  A 0.37 0.37 0.0 0 0 590.71 778.28
  Z
  M 571.89 654.19
  A 0.32 0.32 0.0 0 0 571.30 654.36
  L 571.30 766.50
  A 0.81 0.81 0.0 0 0 572.22 767.30
  Q 573.63 767.11 576.82 766.32
  Q 604.68 759.44 631.01 746.37
  A 0.68 0.67 -29.8 0 0 631.28 745.40
  L 571.89 654.19
  Z
  M 454.29 655.31
  L 395.51 745.63
  A 0.97 0.97 0.0 0 0 395.91 747.04
  Q 420.31 758.26 444.29 764.73
  Q 450.52 766.41 453.08 766.67
  A 1.51 1.50 -87.2 0 0 454.73 765.17
  L 454.73 655.44
  A 0.24 0.24 0.0 0 0 454.29 655.31
  Z"
/>
<path fill="#057070" d="
  M 509.01 264.50
  C 528.12 263.36 545.54 274.06 555.02 290.09
  C 574.51 323.03 555.37 366.89 515.27 369.28
  C 475.18 371.68 450.95 330.42 466.38 295.39
  C 473.88 278.35 489.90 265.65 509.01 264.50
  Z
  M 513.0432 280.8255
  A 36.28 34.55 -89.0 0 0 477.8653 316.4970
  A 36.28 34.55 -89.0 0 0 511.7768 353.3745
  A 36.28 34.55 -89.0 0 0 546.9547 317.7030
  A 36.28 34.55 -89.0 0 0 513.0432 280.8255
  Z"
/>
</svg>

